<?xml version="1.0" encoding="UTF-8"?>
<svg version="1.1" xmlns="http://www.w3.org/2000/svg" width="608" height="662">
<path d="M0 0 C200.64 0 401.28 0 608 0 C608 218.46 608 436.92 608 662 C407.36 662 206.72 662 0 662 C0 443.54 0 225.08 0 0 Z " fill="#EC635E" transform="translate(0,0)"/>
<path d="M0 0 C200.64 0 401.28 0 608 0 C608 218.46 608 436.92 608 662 C407.36 662 206.72 662 0 662 C0 443.54 0 225.08 0 0 Z M40 54 C40 237.48 40 420.96 40 610 C99.4 610 158.8 610 220 610 C220.33476342 581.58413038 220.33476342 581.58413038 217.875 553.625 C217.76329468 552.82000061 217.65158936 552.01500122 217.53649902 551.18560791 C211.68286348 509.00536318 193.55235026 476.80840436 166 445 C148.83355129 425.1353812 131.76029104 405.06627997 119 382 C118.54270508 381.17435547 118.08541016 380.34871094 117.61425781 379.49804688 C104.3509851 355.31465049 95.01656369 330.29402511 87 304 C86.72816895 303.12150391 86.45633789 302.24300781 86.17626953 301.33789062 C73.08972095 258.72714397 68.39181167 213.38428925 64.75 169.125 C64.66096405 168.06608551 64.5719281 167.00717102 64.48019409 165.91616821 C63.36992403 152.57933228 62.75109915 139.38335917 63 126 C65.74942607 134.59865716 68.49707839 143.19787871 71.24264622 151.79776859 C72.51844407 155.79374679 73.79478642 159.78954913 75.07250977 163.78491211 C82.19039638 186.04391437 89.19143602 208.3275062 95.75390625 230.7578125 C97.89574527 238.06526327 100.08738854 245.35752668 102.29443359 252.64550781 C102.93657108 254.78833617 103.55949626 256.9355639 104.17578125 259.0859375 C118.61380628 308.60911142 151.45160422 340.86126089 195.8671875 365.25390625 C199.88167017 367.4323077 203.90679594 369.59055922 207.93359375 371.74609375 C227.87065972 382.41875963 247.67670883 393.10540132 264 409 C264.886875 409.845625 265.77375 410.69125 266.6875 411.5625 C267.450625 412.366875 268.21375 413.17125 269 414 C269.51820313 414.52335937 270.03640625 415.04671875 270.5703125 415.5859375 C276.28604243 421.6605025 280.12919394 428.68303327 284 436 C284.48726562 436.9075 284.97453125 437.815 285.4765625 438.75 C293.64014236 455.17732634 294.32676097 474.06338466 296 492 C302.93 492 309.86 492 317 492 C317.0825 489.1125 317.165 486.225 317.25 483.25 C318.38727301 456.81715084 326.12404689 432.85187885 344 413 C344.67417969 412.24332031 345.34835937 411.48664063 346.04296875 410.70703125 C361.12618924 394.71825155 381.75613526 384.18281027 400.88427734 373.91333008 C416.3387068 365.61564158 431.69923339 357.19468803 446 347 C446.54527344 346.61166992 447.09054687 346.22333984 447.65234375 345.82324219 C466.412428 332.29303754 481.64049625 316.20771224 493 296 C493.64453125 294.85917969 494.2890625 293.71835937 494.953125 292.54296875 C503.31289115 277.10717673 508.73269243 259.89838829 512.9921875 242.91796875 C517.27188361 225.92081779 522.7379029 209.180252 527.93212891 192.44628906 C529.04693959 188.84851413 530.15479844 185.24864734 531.26171875 181.6484375 C534.94121673 169.70490576 538.64493862 157.77836305 542.70532227 145.95776367 C544.72329137 140.03534054 546.40813219 134.05023576 548 128 C547.87906252 147.47093357 546.46249811 166.74668499 544.625 186.125 C544.46748764 187.80956802 544.46748764 187.80956802 544.30679321 189.52816772 C542.93557554 204.08473215 541.24991892 218.5525435 539 233 C538.82769867 234.1113028 538.82769867 234.1113028 538.6519165 235.24505615 C533.59773366 267.58254261 526.78529318 299.05894641 516 330 C515.48783936 331.48016602 515.48783936 331.48016602 514.96533203 332.99023438 C501.56290372 371.24399117 480.4146212 404.53086897 454 435 C430.69964328 461.88203876 409.45237807 489.06326931 400 524 C399.73703125 524.91007812 399.4740625 525.82015625 399.203125 526.7578125 C397.47064289 533.10435411 396.36442258 539.50422566 395.375 546 C395.25181396 546.80638916 395.12862793 547.61277832 395.00170898 548.44360352 C392.00315467 569.08120022 393 588.81429544 393 610 C452.07 610 511.14 610 572 610 C572 426.52 572 243.04 572 54 C520.85349324 53.24084235 520.85349324 53.24084235 470.0625 58.25 C468.77384033 58.46615967 467.48518066 58.68231934 466.1574707 58.9050293 C430.32801458 65.17188871 396.65080446 80.49073458 374.66137695 110.62109375 C360.90411515 130.42159074 351.84233774 152.54785763 345.15786743 175.60797119 C343.15120344 182.52679014 341.06569318 189.42055347 338.96875 196.3125 C338.60748016 197.50075378 338.24621033 198.68900757 337.87399292 199.91326904 C336.37220242 204.85100227 334.86891568 209.78827954 333.36572266 214.72558594 C329.18335424 228.46635977 325.00904819 242.2075391 321 256 C320.66452148 257.14952148 320.32904297 258.29904297 319.98339844 259.48339844 C315.00813587 276.580572 310.3750282 293.74018232 306 311 C304.71221666 307.91977059 303.65563969 304.94739515 302.921875 301.69140625 C302.64017456 300.46611206 302.64017456 300.46611206 302.3527832 299.21606445 C302.15386475 298.34038818 301.95494629 297.46471191 301.75 296.5625 C297.89394881 280.05186244 293.2657751 263.78221703 288.48046875 247.51953125 C288.2660463 246.79065327 288.05162384 246.06177528 287.83070374 245.31081009 C283.12079348 229.31567731 278.30185061 213.35487168 273.39550781 197.41894531 C272.45860008 194.3737083 271.52866557 191.32646907 270.60449219 188.27734375 C257.84205483 146.19466101 242.55795903 103.01400807 203 79 C202.43764648 78.65775391 201.87529297 78.31550781 201.29589844 77.96289062 C186.1156783 68.88711123 169.16730399 63.83007801 152 60 C151.16082031 59.79761719 150.32164062 59.59523438 149.45703125 59.38671875 C141.69806562 57.637279 133.74795803 56.9738845 125.83984375 56.25878906 C123.94847438 56.0864325 122.05781414 55.90610631 120.16796875 55.71777344 C93.41448382 53.10443633 66.99877777 54 40 54 Z " fill="#FEFEFE" transform="translate(0,0)"/>
<path d="M0 0 C0.33 0 0.66 0 1 0 C1 4.29 1 8.58 1 13 C-2 9 -2 9 -1.85546875 6.640625 C-1.63503906 5.85171875 -1.41460938 5.0628125 -1.1875 4.25 C-0.97480469 3.45078125 -0.76210938 2.6515625 -0.54296875 1.828125 C-0.36378906 1.22484375 -0.18460938 0.6215625 0 0 Z " fill="#FBE0DF" transform="translate(548,125)"/>
</svg>
